<?xml version="1.0" standalone="no"?>
<!DOCTYPE svg PUBLIC "-//W3C//DTD SVG 20010904//EN"
 "http://www.w3.org/TR/2001/REC-SVG-20010904/DTD/svg10.dtd">
<svg version="1.0" xmlns="http://www.w3.org/2000/svg"
 width="500.000000pt" height="500.000000pt" viewBox="0 0 500.000000 500.000000"
 preserveAspectRatio="xMidYMid meet">

<g transform="translate(0.000000,500.000000) scale(0.100000,-0.100000)"
fill="#000000" stroke="none">
<path d="M3460 3800 l0 -70 510 0 510 0 0 -520 0 -520 70 0 70 0 0 590 0 590
-580 0 -580 0 0 -70z"/>
<path d="M1064 3329 c-73 -17 -144 -68 -177 -128 -26 -45 -31 -68 -35 -136 -6
-113 15 -182 72 -239 65 -66 135 -88 276 -90 l115 -1 3 53 3 52 -89 0 c-187 0
-262 56 -262 195 0 123 71 195 191 195 l39 0 0 -65 0 -65 60 0 61 0 -3 118 -3
117 -105 2 c-58 0 -123 -3 -146 -8z"/>
<path d="M1613 3327 c-114 -44 -186 -151 -187 -280 0 -104 25 -169 89 -234 66
-65 135 -89 233 -80 167 16 272 150 260 331 -7 108 -65 204 -152 248 -50 26
-192 35 -243 15z m194 -115 c36 -20 72 -74 84 -129 21 -92 -20 -191 -94 -227
-40 -18 -103 -21 -144 -5 -120 45 -152 235 -56 334 49 51 143 63 210 27z"/>
<path d="M1677 3072 c-46 -50 13 -114 74 -82 22 12 27 68 7 88 -18 18 -63 14
-81 -6z"/>
<path d="M2470 3120 c0 -218 0 -221 -23 -244 -32 -32 -94 -42 -141 -22 -56 23
-66 58 -66 231 l0 145 -55 0 -55 0 0 -169 c0 -95 5 -182 11 -198 5 -15 27 -45
47 -66 83 -86 248 -87 340 -3 54 48 57 64 60 314 l4 232 -61 0 -61 0 0 -220z"/>
<path d="M2700 3286 l0 -56 125 0 c112 0 127 -2 145 -20 20 -20 26 -65 12 -86
-17 -26 -56 -34 -166 -34 l-116 0 0 -180 0 -180 55 0 55 0 0 125 0 125 33 0
c33 0 34 -2 90 -122 l56 -123 61 -3 c33 -2 60 1 60 7 0 5 -25 64 -56 131 -31
67 -54 122 -53 124 2 1 20 14 41 29 96 71 85 241 -20 293 -30 15 -65 20 -179
22 l-143 3 0 -55z"/>
<path d="M3325 3321 c-48 -22 -69 -44 -90 -94 -47 -113 25 -224 159 -242 54
-8 96 -40 96 -75 0 -24 -42 -70 -65 -70 -12 0 -15 -12 -15 -55 0 -50 2 -55 23
-55 39 1 103 37 132 74 47 61 46 159 -2 216 -33 40 -72 59 -141 70 -66 11 -85
27 -85 71 0 72 99 95 138 32 19 -31 23 -33 70 -30 l50 2 -3 35 c-3 43 -46 99
-93 122 -44 23 -123 23 -174 -1z"/>
<path d="M3710 3035 l0 -305 145 0 145 0 0 55 0 54 -87 3 -88 3 -3 68 -3 67
126 0 125 0 0 55 0 55 -125 0 -125 0 0 70 0 69 88 3 87 3 3 53 3 52 -145 0
-146 0 0 -305z"/>
<path d="M930 2290 l0 -130 60 0 60 0 0 130 0 130 -60 0 -60 0 0 -130z"/>
<path d="M1280 2230 l0 -190 -175 0 -175 0 0 -115 0 -115 60 0 60 0 0 60 0 60
115 0 115 0 0 -60 0 -60 60 0 60 0 0 305 0 305 -60 0 -60 0 0 -190z"/>
<path d="M1850 2200 c0 -218 0 -221 -23 -244 -32 -32 -94 -42 -141 -22 -56 23
-66 58 -66 231 l0 145 -55 0 -55 0 0 -169 c0 -95 5 -182 11 -198 5 -15 27 -45
47 -66 83 -86 248 -87 340 -3 54 48 57 64 60 314 l4 232 -61 0 -61 0 0 -220z"/>
<path d="M2080 2366 l0 -56 125 0 c112 0 127 -2 145 -20 20 -20 26 -65 12 -86
-17 -26 -56 -34 -166 -34 l-116 0 0 -180 0 -180 55 0 55 0 0 125 0 125 33 0
c33 0 34 -2 90 -122 l56 -123 61 -3 c33 -2 60 1 60 7 0 5 -25 64 -56 131 -31
67 -54 122 -53 124 2 1 20 14 41 29 96 71 85 241 -20 293 -30 15 -65 20 -179
22 l-143 3 0 -55z"/>
<path d="M2600 2301 l0 -121 60 0 60 0 0 65 0 65 43 0 c47 0 113 -27 139 -56
26 -30 48 -89 48 -131 0 -103 -51 -173 -140 -192 -91 -20 -90 -20 -90 59 l0
70 -60 0 -60 0 0 -126 0 -127 113 6 c153 7 209 25 273 91 60 62 79 117 79 227
-1 96 -38 177 -103 226 -60 45 -99 55 -239 60 l-123 5 0 -121z"/>
<path d="M3180 2230 l0 -190 55 0 55 0 0 190 0 190 -55 0 -55 0 0 -190z"/>
<path d="M3620 2115 l0 -305 145 0 145 0 0 55 0 54 -87 3 -88 3 -3 68 -3 67
126 0 125 0 0 55 0 54 -122 3 -123 3 -3 68 -3 67 91 0 90 0 0 55 0 55 -145 0
-145 0 0 -305z"/>
<path d="M380 1720 l0 -590 580 0 580 0 0 70 0 70 -510 0 -510 0 0 520 0 520
-70 0 -70 0 0 -590z"/>
<path d="M3180 1865 l0 -55 170 0 170 0 0 55 0 55 -170 0 -170 0 0 -55z"/>
</g>
</svg>
