<?xml version="1.0" standalone="no"?>
<!DOCTYPE svg PUBLIC "-//W3C//DTD SVG 20010904//EN"
 "http://www.w3.org/TR/2001/REC-SVG-20010904/DTD/svg10.dtd">
<svg version="1.0" xmlns="http://www.w3.org/2000/svg"
 width="500.000000pt" height="500.000000pt" viewBox="0 0 500.000000 500.000000"
 preserveAspectRatio="xMidYMid meet">

<g transform="translate(0.000000,500.000000) scale(0.100000,-0.100000)"
fill="#000000" stroke="none">
<path d="M1296 3235 c-71 -20 -126 -62 -155 -120 -23 -43 -26 -62 -26 -145 0
-79 4 -102 22 -137 51 -95 141 -136 298 -137 l100 -1 3 46 3 46 -104 5 c-118
5 -156 21 -194 78 -33 47 -33 153 0 200 34 51 67 70 130 77 l57 6 0 -62 0 -61
55 0 55 0 0 110 0 110 -97 -1 c-54 0 -120 -7 -147 -14z"/>
<path d="M1755 3227 c-221 -106 -200 -456 31 -523 188 -54 348 67 348 266 0
167 -94 269 -254 277 -64 3 -83 0 -125 -20z m191 -93 c21 -10 45 -34 60 -61
23 -38 26 -52 22 -113 -3 -50 -9 -77 -24 -97 -75 -102 -214 -97 -274 8 -48 86
-25 206 50 257 40 27 116 30 166 6z"/>
<path d="M1832 3008 c-7 -7 -12 -24 -12 -38 0 -14 5 -31 12 -38 28 -28 88 -2
88 38 0 40 -60 66 -88 38z"/>
<path d="M2520 3050 c0 -198 0 -201 -24 -225 -49 -49 -148 -37 -175 21 -6 15
-11 81 -11 164 l0 140 -50 0 -50 0 0 -160 c0 -141 2 -166 20 -200 52 -101 227
-130 328 -54 62 48 66 66 70 302 l4 212 -56 0 -56 0 0 -200z"/>
<path d="M2690 3200 l0 -50 115 0 c102 0 117 -2 135 -20 23 -23 26 -58 6 -86
-13 -17 -29 -19 -135 -22 l-121 -4 0 -164 0 -164 50 0 50 0 0 115 0 115 33 0
c32 0 34 -2 84 -112 l51 -113 56 -3 c31 -2 56 0 56 3 0 3 -22 55 -50 115 -27
60 -50 113 -50 118 0 5 11 15 25 22 42 22 68 75 68 135 0 70 -26 113 -83 143
-39 19 -60 22 -167 22 l-123 0 0 -50z"/>
<path d="M3234 3236 c-102 -46 -133 -187 -57 -258 38 -35 60 -45 115 -53 87
-13 115 -79 51 -120 -29 -18 -32 -25 -33 -67 0 -40 3 -48 18 -48 30 0 105 43
126 73 30 40 30 144 0 184 -25 35 -98 73 -139 73 -46 0 -75 25 -75 64 0 41 26
66 68 66 31 0 72 -29 72 -50 0 -5 23 -10 51 -10 l52 0 -7 33 c-7 37 -31 73
-69 101 -34 25 -129 32 -173 12z"/>
<path d="M3540 2970 l0 -280 130 0 130 0 0 50 0 49 -77 3 -78 3 -3 63 -3 62
116 0 115 0 0 50 0 49 -112 3 -113 3 -3 63 -3 62 81 0 80 0 0 50 0 50 -130 0
-130 0 0 -280z"/>
<path d="M1190 2470 l0 -120 50 0 50 0 0 120 0 120 -50 0 -50 0 0 -120z"/>
<path d="M1510 2416 l0 -176 -160 0 -160 0 0 -105 0 -105 49 0 50 0 3 53 3 52
108 3 107 3 0 -56 0 -56 53 3 52 3 0 275 0 275 -52 3 -53 3 0 -175z"/>
<path d="M1990 2387 l0 -204 -26 -24 c-38 -36 -113 -34 -151 4 -28 27 -28 29
-31 177 l-3 150 -50 0 -49 0 0 -155 c0 -176 7 -203 63 -252 106 -93 283 -60
338 62 16 34 19 68 19 243 l0 202 -55 0 -55 0 0 -203z"/>
<path d="M2160 2540 l0 -50 113 0 c132 0 157 -10 157 -65 0 -55 -25 -65 -157
-65 l-113 0 0 -166 0 -165 53 3 52 3 3 113 3 112 28 0 c26 0 32 -8 81 -115
l53 -115 54 0 c29 0 53 4 53 9 0 5 -22 57 -50 116 -27 59 -50 110 -50 114 0 3
15 16 34 28 67 43 85 164 34 229 -39 49 -89 64 -225 64 l-123 0 0 -50z"/>
<path d="M2600 2480 l0 -110 55 0 55 0 0 60 0 60 38 0 c51 0 122 -37 149 -79
18 -27 23 -48 23 -101 0 -107 -49 -161 -157 -176 l-53 -7 0 67 0 67 -52 -3
-53 -3 0 -110 0 -110 100 1 c126 0 191 21 250 78 56 53 80 129 73 228 -13 171
-117 248 -335 248 l-93 0 0 -110z"/>
<path d="M3092 2418 l3 -173 53 -3 52 -3 0 175 0 176 -55 0 -55 0 2 -172z"/>
<path d="M3460 2310 l0 -280 135 0 135 0 0 50 0 50 -80 0 -80 0 0 65 0 64 113
3 112 3 3 48 3 47 -115 0 -116 0 0 65 0 65 80 0 80 0 0 50 0 50 -135 0 -135 0
0 -280z"/>
<path d="M3092 2083 l3 -48 153 -3 152 -3 0 51 0 50 -156 0 -155 0 3 -47z"/>
</g>
</svg>
